<?xml version="1.0" encoding="utf-8" standalone="no"?>
<!DOCTYPE svg PUBLIC "-//W3C//DTD SVG 1.1//EN"
  "http://www.w3.org/Graphics/SVG/1.1/DTD/svg11.dtd">
<!-- Created with matplotlib (https://matplotlib.org/) -->
<svg height="345.6pt" version="1.1" viewBox="0 0 460.8 345.6" width="460.8pt" xmlns="http://www.w3.org/2000/svg" xmlns:xlink="http://www.w3.org/1999/xlink">
 <defs>
  <style type="text/css">
*{stroke-linecap:butt;stroke-linejoin:round;}
  </style>
 </defs>
 <g id="figure_1">
  <g id="patch_1">
   <path d="M 0 345.6 
L 460.8 345.6 
L 460.8 0 
L 0 0 
z
" style="fill:#ffffff;"/>
  </g>
  <g id="axes_1">
   <g id="patch_2">
    <path d="M 57.6 307.584 
L 414.72 307.584 
L 414.72 41.472 
L 57.6 41.472 
z
" style="fill:#ffffff;"/>
   </g>
   <g id="matplotlib.axis_1">
    <g id="xtick_1">
     <g id="line2d_1">
      <defs>
       <path d="M 0 0 
L 0 3.5 
" id="m5b1aa506d2" style="stroke:#000000;stroke-width:0.8;"/>
      </defs>
      <g>
       <use style="stroke:#000000;stroke-width:0.8;" x="73.832727" xlink:href="#m5b1aa506d2" y="307.584"/>
      </g>
     </g>
     <g id="text_1">
      <!-- 0 -->
      <defs>
       <path d="M 31.78125 66.40625 
Q 24.171875 66.40625 20.328125 58.90625 
Q 16.5 51.421875 16.5 36.375 
Q 16.5 21.390625 20.328125 13.890625 
Q 24.171875 6.390625 31.78125 6.390625 
Q 39.453125 6.390625 43.28125 13.890625 
Q 47.125 21.390625 47.125 36.375 
Q 47.125 51.421875 43.28125 58.90625 
Q 39.453125 66.40625 31.78125 66.40625 
z
M 31.78125 74.21875 
Q 44.046875 74.21875 50.515625 64.515625 
Q 56.984375 54.828125 56.984375 36.375 
Q 56.984375 17.96875 50.515625 8.265625 
Q 44.046875 -1.421875 31.78125 -1.421875 
Q 19.53125 -1.421875 13.0625 8.265625 
Q 6.59375 17.96875 6.59375 36.375 
Q 6.59375 54.828125 13.0625 64.515625 
Q 19.53125 74.21875 31.78125 74.21875 
z
" id="DejaVuSans-48"/>
      </defs>
      <g transform="translate(70.651477 322.182437)scale(0.1 -0.1)">
       <use xlink:href="#DejaVuSans-48"/>
      </g>
     </g>
    </g>
    <g id="xtick_2">
     <g id="line2d_2">
      <g>
       <use style="stroke:#000000;stroke-width:0.8;" x="138.763636" xlink:href="#m5b1aa506d2" y="307.584"/>
      </g>
     </g>
     <g id="text_2">
      <!-- 20 -->
      <defs>
       <path d="M 19.1875 8.296875 
L 53.609375 8.296875 
L 53.609375 0 
L 7.328125 0 
L 7.328125 8.296875 
Q 12.9375 14.109375 22.625 23.890625 
Q 32.328125 33.6875 34.8125 36.53125 
Q 39.546875 41.84375 41.421875 45.53125 
Q 43.3125 49.21875 43.3125 52.78125 
Q 43.3125 58.59375 39.234375 62.25 
Q 35.15625 65.921875 28.609375 65.921875 
Q 23.96875 65.921875 18.8125 64.3125 
Q 13.671875 62.703125 7.8125 59.421875 
L 7.8125 69.390625 
Q 13.765625 71.78125 18.9375 73 
Q 24.125 74.21875 28.421875 74.21875 
Q 39.75 74.21875 46.484375 68.546875 
Q 53.21875 62.890625 53.21875 53.421875 
Q 53.21875 48.921875 51.53125 44.890625 
Q 49.859375 40.875 45.40625 35.40625 
Q 44.1875 33.984375 37.640625 27.21875 
Q 31.109375 20.453125 19.1875 8.296875 
z
" id="DejaVuSans-50"/>
      </defs>
      <g transform="translate(132.401136 322.182437)scale(0.1 -0.1)">
       <use xlink:href="#DejaVuSans-50"/>
       <use x="63.623047" xlink:href="#DejaVuSans-48"/>
      </g>
     </g>
    </g>
    <g id="xtick_3">
     <g id="line2d_3">
      <g>
       <use style="stroke:#000000;stroke-width:0.8;" x="203.694545" xlink:href="#m5b1aa506d2" y="307.584"/>
      </g>
     </g>
     <g id="text_3">
      <!-- 40 -->
      <defs>
       <path d="M 37.796875 64.3125 
L 12.890625 25.390625 
L 37.796875 25.390625 
z
M 35.203125 72.90625 
L 47.609375 72.90625 
L 47.609375 25.390625 
L 58.015625 25.390625 
L 58.015625 17.1875 
L 47.609375 17.1875 
L 47.609375 0 
L 37.796875 0 
L 37.796875 17.1875 
L 4.890625 17.1875 
L 4.890625 26.703125 
z
" id="DejaVuSans-52"/>
      </defs>
      <g transform="translate(197.332045 322.182437)scale(0.1 -0.1)">
       <use xlink:href="#DejaVuSans-52"/>
       <use x="63.623047" xlink:href="#DejaVuSans-48"/>
      </g>
     </g>
    </g>
    <g id="xtick_4">
     <g id="line2d_4">
      <g>
       <use style="stroke:#000000;stroke-width:0.8;" x="268.625455" xlink:href="#m5b1aa506d2" y="307.584"/>
      </g>
     </g>
     <g id="text_4">
      <!-- 60 -->
      <defs>
       <path d="M 33.015625 40.375 
Q 26.375 40.375 22.484375 35.828125 
Q 18.609375 31.296875 18.609375 23.390625 
Q 18.609375 15.53125 22.484375 10.953125 
Q 26.375 6.390625 33.015625 6.390625 
Q 39.65625 6.390625 43.53125 10.953125 
Q 47.40625 15.53125 47.40625 23.390625 
Q 47.40625 31.296875 43.53125 35.828125 
Q 39.65625 40.375 33.015625 40.375 
z
M 52.59375 71.296875 
L 52.59375 62.3125 
Q 48.875 64.0625 45.09375 64.984375 
Q 41.3125 65.921875 37.59375 65.921875 
Q 27.828125 65.921875 22.671875 59.328125 
Q 17.53125 52.734375 16.796875 39.40625 
Q 19.671875 43.65625 24.015625 45.921875 
Q 28.375 48.1875 33.59375 48.1875 
Q 44.578125 48.1875 50.953125 41.515625 
Q 57.328125 34.859375 57.328125 23.390625 
Q 57.328125 12.15625 50.6875 5.359375 
Q 44.046875 -1.421875 33.015625 -1.421875 
Q 20.359375 -1.421875 13.671875 8.265625 
Q 6.984375 17.96875 6.984375 36.375 
Q 6.984375 53.65625 15.1875 63.9375 
Q 23.390625 74.21875 37.203125 74.21875 
Q 40.921875 74.21875 44.703125 73.484375 
Q 48.484375 72.75 52.59375 71.296875 
z
" id="DejaVuSans-54"/>
      </defs>
      <g transform="translate(262.262955 322.182437)scale(0.1 -0.1)">
       <use xlink:href="#DejaVuSans-54"/>
       <use x="63.623047" xlink:href="#DejaVuSans-48"/>
      </g>
     </g>
    </g>
    <g id="xtick_5">
     <g id="line2d_5">
      <g>
       <use style="stroke:#000000;stroke-width:0.8;" x="333.556364" xlink:href="#m5b1aa506d2" y="307.584"/>
      </g>
     </g>
     <g id="text_5">
      <!-- 80 -->
      <defs>
       <path d="M 31.78125 34.625 
Q 24.75 34.625 20.71875 30.859375 
Q 16.703125 27.09375 16.703125 20.515625 
Q 16.703125 13.921875 20.71875 10.15625 
Q 24.75 6.390625 31.78125 6.390625 
Q 38.8125 6.390625 42.859375 10.171875 
Q 46.921875 13.96875 46.921875 20.515625 
Q 46.921875 27.09375 42.890625 30.859375 
Q 38.875 34.625 31.78125 34.625 
z
M 21.921875 38.8125 
Q 15.578125 40.375 12.03125 44.71875 
Q 8.5 49.078125 8.5 55.328125 
Q 8.5 64.0625 14.71875 69.140625 
Q 20.953125 74.21875 31.78125 74.21875 
Q 42.671875 74.21875 48.875 69.140625 
Q 55.078125 64.0625 55.078125 55.328125 
Q 55.078125 49.078125 51.53125 44.71875 
Q 48 40.375 41.703125 38.8125 
Q 48.828125 37.15625 52.796875 32.3125 
Q 56.78125 27.484375 56.78125 20.515625 
Q 56.78125 9.90625 50.3125 4.234375 
Q 43.84375 -1.421875 31.78125 -1.421875 
Q 19.734375 -1.421875 13.25 4.234375 
Q 6.78125 9.90625 6.78125 20.515625 
Q 6.78125 27.484375 10.78125 32.3125 
Q 14.796875 37.15625 21.921875 38.8125 
z
M 18.3125 54.390625 
Q 18.3125 48.734375 21.84375 45.5625 
Q 25.390625 42.390625 31.78125 42.390625 
Q 38.140625 42.390625 41.71875 45.5625 
Q 45.3125 48.734375 45.3125 54.390625 
Q 45.3125 60.0625 41.71875 63.234375 
Q 38.140625 66.40625 31.78125 66.40625 
Q 25.390625 66.40625 21.84375 63.234375 
Q 18.3125 60.0625 18.3125 54.390625 
z
" id="DejaVuSans-56"/>
      </defs>
      <g transform="translate(327.193864 322.182437)scale(0.1 -0.1)">
       <use xlink:href="#DejaVuSans-56"/>
       <use x="63.623047" xlink:href="#DejaVuSans-48"/>
      </g>
     </g>
    </g>
    <g id="xtick_6">
     <g id="line2d_6">
      <g>
       <use style="stroke:#000000;stroke-width:0.8;" x="398.487273" xlink:href="#m5b1aa506d2" y="307.584"/>
      </g>
     </g>
     <g id="text_6">
      <!-- 100 -->
      <defs>
       <path d="M 12.40625 8.296875 
L 28.515625 8.296875 
L 28.515625 63.921875 
L 10.984375 60.40625 
L 10.984375 69.390625 
L 28.421875 72.90625 
L 38.28125 72.90625 
L 38.28125 8.296875 
L 54.390625 8.296875 
L 54.390625 0 
L 12.40625 0 
z
" id="DejaVuSans-49"/>
      </defs>
      <g transform="translate(388.943523 322.182437)scale(0.1 -0.1)">
       <use xlink:href="#DejaVuSans-49"/>
       <use x="63.623047" xlink:href="#DejaVuSans-48"/>
       <use x="127.246094" xlink:href="#DejaVuSans-48"/>
      </g>
     </g>
    </g>
   </g>
   <g id="matplotlib.axis_2">
    <g id="ytick_1">
     <g id="line2d_7">
      <defs>
       <path d="M 0 0 
L -3.5 0 
" id="m7163c7e751" style="stroke:#000000;stroke-width:0.8;"/>
      </defs>
      <g>
       <use style="stroke:#000000;stroke-width:0.8;" x="57.6" xlink:href="#m7163c7e751" y="285.943416"/>
      </g>
     </g>
     <g id="text_7">
      <!-- −80 -->
      <defs>
       <path d="M 10.59375 35.5 
L 73.1875 35.5 
L 73.1875 27.203125 
L 10.59375 27.203125 
z
" id="DejaVuSans-8722"/>
      </defs>
      <g transform="translate(29.495313 289.742635)scale(0.1 -0.1)">
       <use xlink:href="#DejaVuSans-8722"/>
       <use x="83.789062" xlink:href="#DejaVuSans-56"/>
       <use x="147.412109" xlink:href="#DejaVuSans-48"/>
      </g>
     </g>
    </g>
    <g id="ytick_2">
     <g id="line2d_8">
      <g>
       <use style="stroke:#000000;stroke-width:0.8;" x="57.6" xlink:href="#m7163c7e751" y="228.835052"/>
      </g>
     </g>
     <g id="text_8">
      <!-- −60 -->
      <g transform="translate(29.495313 232.634271)scale(0.1 -0.1)">
       <use xlink:href="#DejaVuSans-8722"/>
       <use x="83.789062" xlink:href="#DejaVuSans-54"/>
       <use x="147.412109" xlink:href="#DejaVuSans-48"/>
      </g>
     </g>
    </g>
    <g id="ytick_3">
     <g id="line2d_9">
      <g>
       <use style="stroke:#000000;stroke-width:0.8;" x="57.6" xlink:href="#m7163c7e751" y="171.726688"/>
      </g>
     </g>
     <g id="text_9">
      <!-- −40 -->
      <g transform="translate(29.495313 175.525907)scale(0.1 -0.1)">
       <use xlink:href="#DejaVuSans-8722"/>
       <use x="83.789062" xlink:href="#DejaVuSans-52"/>
       <use x="147.412109" xlink:href="#DejaVuSans-48"/>
      </g>
     </g>
    </g>
    <g id="ytick_4">
     <g id="line2d_10">
      <g>
       <use style="stroke:#000000;stroke-width:0.8;" x="57.6" xlink:href="#m7163c7e751" y="114.618324"/>
      </g>
     </g>
     <g id="text_10">
      <!-- −20 -->
      <g transform="translate(29.495313 118.417543)scale(0.1 -0.1)">
       <use xlink:href="#DejaVuSans-8722"/>
       <use x="83.789062" xlink:href="#DejaVuSans-50"/>
       <use x="147.412109" xlink:href="#DejaVuSans-48"/>
      </g>
     </g>
    </g>
    <g id="ytick_5">
     <g id="line2d_11">
      <g>
       <use style="stroke:#000000;stroke-width:0.8;" x="57.6" xlink:href="#m7163c7e751" y="57.50996"/>
      </g>
     </g>
     <g id="text_11">
      <!-- 0 -->
      <g transform="translate(44.2375 61.309179)scale(0.1 -0.1)">
       <use xlink:href="#DejaVuSans-48"/>
      </g>
     </g>
    </g>
   </g>
   <g id="line2d_12">
    <path clip-path="url(#pda4db76437)" d="M 73.832727 53.568 
L 74.157414 53.680673 
L 74.547039 54.076621 
L 75.228881 55.161363 
L 77.177004 58.36998 
L 78.50822 60.071475 
L 80.034249 61.653193 
L 81.852497 63.210107 
L 84.125306 64.854557 
L 87.177364 66.771313 
L 92.047669 69.532403 
L 100.814218 74.499879 
L 105.035149 77.166931 
L 108.411894 79.555157 
L 111.204203 81.79657 
L 113.444543 83.873405 
L 115.197853 85.791496 
L 116.561538 87.606415 
L 117.568068 89.300611 
L 118.314848 90.970126 
L 118.866816 92.732999 
L 119.256441 94.713107 
L 119.51619 97.209203 
L 119.646065 100.144165 
L 119.711002 105.757651 
L 119.77594 101.180903 
L 119.970752 96.950269 
L 120.295439 94.775024 
L 120.717532 93.47336 
L 121.204563 92.655015 
L 121.788999 92.093864 
L 122.470842 91.739779 
L 123.315028 91.55631 
L 124.354027 91.565402 
L 125.652775 91.809274 
L 127.243741 92.346804 
L 129.094457 93.216712 
L 131.107517 94.411906 
L 133.185513 95.907833 
L 135.133636 97.582168 
L 136.854477 99.346945 
L 138.315568 101.161595 
L 139.451973 102.915741 
L 140.328628 104.663595 
L 140.978002 106.438032 
L 141.432564 108.279344 
L 141.757251 110.496564 
L 141.952063 113.259697 
L 142.049469 117.30414 
L 142.081938 131.799242 
L 142.146875 115.370961 
L 142.374156 111.254545 
L 142.698843 109.370206 
L 143.120936 108.210787 
L 143.607967 107.50136 
L 144.159935 107.071545 
L 144.809309 106.843559 
L 145.588557 106.810369 
L 146.53015 107.000511 
L 147.634086 107.454761 
L 148.867896 108.203456 
L 150.166644 109.256409 
L 151.367986 110.514853 
L 152.406985 111.920816 
L 153.251171 113.437905 
L 153.900545 115.0711 
L 154.355107 116.786613 
L 154.679794 118.836302 
L 154.874606 121.252022 
L 154.972012 124.074403 
L 155.03695 131.002908 
L 155.069418 125.431279 
L 155.26423 120.358342 
L 155.556449 118.210853 
L 155.946073 116.865725 
L 156.433104 115.956211 
L 156.985072 115.371275 
L 157.634446 114.995943 
L 158.413694 114.80536 
L 159.355287 114.81333 
L 160.491691 115.057541 
L 161.822908 115.582141 
L 163.316468 116.417659 
L 164.907435 117.568806 
L 166.465932 118.968961 
L 167.927024 120.577495 
L 169.193303 122.295877 
L 170.232302 124.070615 
L 171.044019 125.885989 
L 171.660925 127.818118 
L 172.083018 129.858648 
L 172.375236 132.43224 
L 172.53758 135.97674 
L 172.602517 143.108174 
L 172.634986 138.87216 
L 172.829798 132.989956 
L 173.122016 130.857249 
L 173.511641 129.616828 
L 173.966202 128.902934 
L 174.453233 128.531397 
L 175.005201 128.384668 
L 175.654575 128.45319 
L 176.401355 128.768042 
L 177.213073 129.354829 
L 178.057259 130.247175 
L 178.836508 131.408826 
L 179.485882 132.794932 
L 179.972912 134.356062 
L 180.330068 136.236535 
L 180.557349 138.499359 
L 180.687224 141.536086 
L 180.752161 148.734608 
L 180.78463 144.357674 
L 180.979442 138.410827 
L 181.27166 136.15259 
L 181.661285 134.742477 
L 182.148315 133.778613 
L 182.732752 133.119743 
L 183.382126 132.716783 
L 184.161375 132.502651 
L 185.070498 132.494895 
L 186.109497 132.712057 
L 187.310839 133.195536 
L 188.642055 133.980366 
L 190.005741 135.047025 
L 191.336958 136.375307 
L 192.5383 137.894284 
L 193.544829 139.531567 
L 194.324078 141.217978 
L 194.908515 142.998289 
L 195.330608 144.987669 
L 195.622826 147.515767 
L 195.78517 150.98953 
L 195.850107 157.397466 
L 195.882576 154.162077 
L 196.044919 148.500916 
L 196.337138 146.049296 
L 196.726762 144.673948 
L 197.181324 143.863797 
L 197.700823 143.384424 
L 198.28526 143.147512 
L 198.967103 143.117881 
L 199.77882 143.31736 
L 200.720412 143.789042 
L 201.759411 144.565786 
L 202.830878 145.651076 
L 203.837408 146.99253 
L 204.714063 148.542801 
L 205.395905 150.197777 
L 205.915405 152.044782 
L 206.27256 154.115487 
L 206.499841 156.645217 
L 206.629716 160.509732 
L 206.662185 163.821926 
L 206.727122 160.445405 
L 206.921934 156.063937 
L 207.214153 154.06491 
L 207.603777 152.847296 
L 208.058339 152.125837 
L 208.545369 151.738793 
L 209.097337 151.575681 
L 209.714243 151.624023 
L 210.428554 151.910416 
L 211.207803 152.471813 
L 211.987052 153.311526 
L 212.701363 154.4092 
L 213.318269 155.785171 
L 213.77283 157.332618 
L 214.097517 159.158045 
L 214.324798 161.662841 
L 214.454673 165.774523 
L 214.487142 170.176302 
L 214.552079 164.95023 
L 214.746891 160.758182 
L 215.071578 158.540736 
L 215.493672 157.183958 
L 216.013171 156.271235 
L 216.597607 155.687322 
L 217.27945 155.324221 
L 218.058699 155.166758 
L 218.967823 155.217399 
L 220.006821 155.502643 
L 221.175694 156.056013 
L 222.474442 156.925757 
L 223.805659 158.092284 
L 225.104407 159.531814 
L 226.27328 161.156259 
L 227.27981 162.92946 
L 228.091528 164.802395 
L 228.708433 166.777891 
L 229.162995 169.022177 
L 229.455213 171.678896 
L 229.617557 175.394554 
L 229.650025 177.360229 
L 229.682494 187.063437 
L 229.747431 175.63625 
L 229.974712 171.555751 
L 230.299399 169.791891 
L 230.689024 168.865163 
L 231.111117 168.407646 
L 231.565679 168.244663 
L 232.052709 168.315098 
L 232.604677 168.630533 
L 233.221583 169.257986 
L 233.838488 170.227351 
L 234.357987 171.452849 
L 234.78008 173.003167 
L 235.104767 175.107265 
L 235.299579 177.846813 
L 235.396986 182.108277 
L 235.429454 187.962753 
L 235.494392 179.663067 
L 235.721673 175.590273 
L 236.04636 173.629924 
L 236.468453 172.370457 
L 236.955483 171.561312 
L 237.53992 171.019432 
L 238.189294 170.729159 
L 238.903605 170.656167 
L 239.715323 170.802003 
L 240.624446 171.201103 
L 241.598507 171.88479 
L 242.5401 172.818491 
L 243.416755 174.000961 
L 244.163535 175.383059 
L 244.747972 176.922976 
L 245.202533 178.773215 
L 245.494752 180.841342 
L 245.689564 183.805952 
L 245.819439 189.456698 
L 245.851907 186.330197 
L 246.04672 181.851882 
L 246.338938 179.788038 
L 246.728562 178.490079 
L 247.215593 177.630621 
L 247.767561 177.109581 
L 248.384466 176.834199 
L 249.098778 176.767295 
L 249.910495 176.919641 
L 250.852087 177.330722 
L 251.891086 178.03698 
L 252.962553 179.041885 
L 253.969083 180.286916 
L 254.878206 181.766032 
L 255.624986 183.412468 
L 256.176954 185.146844 
L 256.599048 187.236074 
L 256.858797 189.600253 
L 257.021141 193.246127 
L 257.086078 203.381422 
L 257.118547 195.566496 
L 257.313359 190.017491 
L 257.605577 187.890774 
L 257.995202 186.632342 
L 258.449764 185.894542 
L 258.936794 185.499161 
L 259.488762 185.328208 
L 260.138136 185.37043 
L 260.884916 185.652948 
L 261.729102 186.215692 
L 262.638226 187.090317 
L 263.54735 188.271674 
L 264.391536 189.735161 
L 265.105847 191.425601 
L 265.657815 193.309797 
L 266.04744 195.417394 
L 266.307189 198.055694 
L 266.437064 201.219954 
L 266.502001 209.697748 
L 266.53447 203.788024 
L 266.729282 198.145153 
L 267.021501 196.079328 
L 267.378656 194.99518 
L 267.768281 194.434726 
L 268.190374 194.196385 
L 268.612467 194.207318 
L 269.067029 194.440823 
L 269.554059 194.939053 
L 270.04109 195.750699 
L 270.495652 196.961784 
L 270.852807 198.575573 
L 271.112557 200.87291 
L 271.242432 203.569942 
L 271.339838 208.686042 
L 271.372307 205.262255 
L 271.567119 200.593241 
L 271.891806 198.232523 
L 272.313899 196.763029 
L 272.833398 195.742772 
L 273.417835 195.061082 
L 274.099678 194.606762 
L 274.846458 194.374826 
L 275.690644 194.345986 
L 276.632236 194.536407 
L 277.703703 194.988475 
L 278.840108 195.714347 
L 280.008981 196.724677 
L 281.177855 198.035953 
L 282.249322 199.581119 
L 283.158445 201.285085 
L 283.872757 203.081818 
L 284.424725 205.074221 
L 284.814349 207.354399 
L 285.04163 209.893926 
L 285.171505 213.598515 
L 285.236442 217.652977 
L 285.268911 214.092551 
L 285.463723 209.537188 
L 285.755941 207.580897 
L 286.113097 206.519741 
L 286.53519 205.915856 
L 286.989752 205.645672 
L 287.476783 205.617645 
L 288.028751 205.81685 
L 288.645656 206.278731 
L 289.327499 207.079315 
L 289.976873 208.193788 
L 290.528841 209.574916 
L 290.983402 211.341927 
L 291.308089 213.597058 
L 291.502902 216.661514 
L 291.567839 219.346543 
L 291.600308 223.479577 
L 291.665245 218.679467 
L 291.860057 214.475666 
L 292.184744 212.315431 
L 292.574369 211.121357 
L 293.028931 210.38086 
L 293.54843 209.945414 
L 294.100398 209.76409 
L 294.717303 209.795099 
L 295.399146 210.052457 
L 296.145926 210.572854 
L 296.925175 211.392897 
L 297.671955 212.51566 
L 298.28886 213.833988 
L 298.808359 215.486978 
L 299.165515 217.333756 
L 299.425265 219.915 
L 299.55514 223.182516 
L 299.620077 233.387771 
L 299.652546 224.987232 
L 299.847358 219.684455 
L 300.139576 217.530068 
L 300.529201 216.212932 
L 300.983762 215.406901 
L 301.503262 214.923006 
L 302.05523 214.698915 
L 302.672135 214.683308 
L 303.386446 214.899587 
L 304.165695 215.383411 
L 304.944944 216.130151 
L 305.691724 217.149644 
L 306.341098 218.402 
L 306.860597 219.859865 
L 307.250222 221.560226 
L 307.54244 223.856994 
L 307.704784 226.74476 
L 307.769721 229.925668 
L 307.80219 245.113284 
L 307.867127 227.978163 
L 308.094408 223.816242 
L 308.419095 221.875863 
L 308.841188 220.655828 
L 309.328219 219.892855 
L 309.880187 219.422894 
L 310.497092 219.181561 
L 311.211403 219.145362 
L 312.023121 219.332156 
L 312.964713 219.78863 
L 314.003712 220.554129 
L 315.075179 221.628103 
L 316.114177 222.983321 
L 317.088238 224.627252 
L 317.899956 226.433539 
L 318.54933 228.427637 
L 319.003892 230.507142 
L 319.328579 233.059281 
L 319.523391 236.623077 
L 319.620797 243.145231 
L 319.653266 238.907971 
L 319.848078 234.203955 
L 320.140296 232.291213 
L 320.497452 231.315613 
L 320.887076 230.859215 
L 321.276701 230.732823 
L 321.698794 230.844622 
L 322.185824 231.235671 
L 322.705324 231.965792 
L 323.192354 233.038055 
L 323.614447 234.509407 
L 323.939134 236.488046 
L 324.133946 238.903597 
L 324.231353 241.832864 
L 324.29629 246.956204 
L 324.328759 242.688793 
L 324.523571 237.828056 
L 324.815789 235.681685 
L 325.205414 234.33521 
L 325.659975 233.497109 
L 326.179475 232.99023 
L 326.731443 232.760913 
L 327.315879 232.760137 
L 327.965253 232.995603 
L 328.647096 233.495536 
L 329.328939 234.288706 
L 329.945844 235.360577 
L 330.465343 236.72419 
L 330.854968 238.362055 
L 331.147186 240.621882 
L 331.309529 243.515471 
L 331.374467 246.787715 
L 331.406936 254.873169 
L 331.471873 244.603912 
L 331.699154 240.464612 
L 332.023841 238.487583 
L 332.445934 237.215107 
L 332.965433 236.352708 
L 333.54987 235.816076 
L 334.199244 235.524772 
L 334.913555 235.447277 
L 335.725273 235.585039 
L 336.634397 235.968885 
L 337.640926 236.645232 
L 338.679925 237.620015 
L 339.686454 238.871397 
L 340.595578 240.349771 
L 341.374827 242.036932 
L 341.991732 243.906219 
L 342.446294 246.017796 
L 342.738512 248.412473 
L 342.900856 251.256396 
L 342.965793 254.10972 
L 342.998262 259.155023 
L 343.063199 253.087706 
L 343.258012 249.094769 
L 343.55023 247.221903 
L 343.907386 246.194798 
L 344.329479 245.617519 
L 344.751572 245.384432 
L 345.206134 245.372464 
L 345.725633 245.582144 
L 346.31007 246.061645 
L 346.926975 246.856055 
L 347.511412 247.96361 
L 348.030911 249.440682 
L 348.420535 251.229854 
L 348.680285 253.392167 
L 348.842628 256.469827 
L 348.940034 262.818703 
L 348.972503 258.635885 
L 349.167315 253.820108 
L 349.459534 251.710692 
L 349.849158 250.404562 
L 350.30372 249.60391 
L 350.823219 249.127782 
L 351.375187 248.916143 
L 351.992092 248.919402 
L 352.673935 249.146137 
L 353.453184 249.648742 
L 354.264901 250.439556 
L 355.076619 251.539317 
L 355.823399 252.922145 
L 356.472773 254.610145 
L 356.959804 256.50188 
L 357.316959 258.844039 
L 357.511772 261.393925 
L 357.609178 264.44447 
L 357.674115 268.968929 
L 357.706584 265.127706 
L 357.901396 260.486116 
L 358.193614 258.524804 
L 358.55077 257.481793 
L 358.940394 256.953684 
L 359.330019 256.760208 
L 359.752112 256.807067 
L 360.206674 257.107744 
L 360.693704 257.731214 
L 361.148266 258.696174 
L 361.537891 260.06152 
L 361.830109 261.895504 
L 362.024921 264.516891 
L 362.122327 268.437499 
L 362.154796 279.274293 
L 362.219733 266.569301 
L 362.447014 262.287083 
L 362.771701 260.223014 
L 363.193794 258.85909 
L 363.713294 257.899648 
L 364.29773 257.267663 
L 364.947104 256.883003 
L 365.661416 256.71413 
L 366.473133 256.758289 
L 367.349788 257.031337 
L 368.323849 257.574045 
L 369.362848 258.420477 
L 370.401846 259.567151 
L 371.375907 260.985692 
L 372.220093 262.617411 
L 372.901936 264.430376 
L 373.388967 266.323521 
L 373.746122 268.600161 
L 373.973403 271.593962 
L 374.070809 275.161177 
L 374.103278 279.657003 
L 374.168215 274.357355 
L 374.363028 270.290132 
L 374.655246 268.399032 
L 375.04487 267.293819 
L 375.466963 266.732746 
L 375.921525 266.48738 
L 376.408556 266.475963 
L 376.960524 266.685899 
L 377.609898 267.177585 
L 378.324209 268.004578 
L 379.038521 269.170795 
L 379.687895 270.646982 
L 380.239863 272.466194 
L 380.629487 274.481655 
L 380.889237 276.876001 
L 381.05158 280.443586 
L 381.116517 287.523819 
L 381.148986 283.379937 
L 381.343798 277.528686 
L 381.636017 275.480024 
L 381.993172 274.44871 
L 382.382797 273.972833 
L 382.739953 273.859078 
L 383.097108 273.968833 
L 383.486733 274.319683 
L 383.908826 275.007227 
L 384.29845 276.060347 
L 384.623137 277.55212 
L 384.850418 279.504664 
L 385.012762 282.984357 
L 385.077699 291.557069 
L 385.110168 285.432385 
L 385.30498 279.625618 
L 385.597198 277.293324 
L 386.019291 275.699656 
L 386.506322 274.686077 
L 387.05829 274.015901 
L 387.675195 273.607599 
L 388.324569 273.435279 
L 389.038881 273.473484 
L 389.818129 273.740904 
L 390.662316 274.275833 
L 391.506502 275.078095 
L 392.318219 276.158485 
L 393.032531 277.47719 
L 393.616968 279.015281 
L 394.071529 280.850057 
L 394.396216 283.170626 
L 394.591029 286.359199 
L 394.655966 289.311902 
L 394.688435 295.488 
L 394.753372 287.947232 
L 394.948184 283.984801 
L 395.272871 281.892614 
L 395.662496 280.745772 
L 396.117058 280.05076 
L 396.604088 279.678441 
L 397.156056 279.53179 
L 397.772961 279.604985 
L 398.454804 279.911482 
L 398.487273 279.931389 
L 398.487273 279.931389 
" style="fill:none;stroke:#1f77b4;stroke-linecap:square;stroke-width:1.5;"/>
   </g>
   <g id="line2d_13">
    <path clip-path="url(#pda4db76437)" d="M 73.832727 57.50996 
L 398.487273 57.50996 
L 398.487273 57.50996 
" style="fill:none;stroke:#ff7f0e;stroke-dasharray:1.5,2.475;stroke-dashoffset:0;stroke-width:1.5;"/>
   </g>
   <g id="patch_3">
    <path d="M 57.6 307.584 
L 57.6 41.472 
" style="fill:none;stroke:#000000;stroke-linecap:square;stroke-linejoin:miter;stroke-width:0.8;"/>
   </g>
   <g id="patch_4">
    <path d="M 414.72 307.584 
L 414.72 41.472 
" style="fill:none;stroke:#000000;stroke-linecap:square;stroke-linejoin:miter;stroke-width:0.8;"/>
   </g>
   <g id="patch_5">
    <path d="M 57.6 307.584 
L 414.72 307.584 
" style="fill:none;stroke:#000000;stroke-linecap:square;stroke-linejoin:miter;stroke-width:0.8;"/>
   </g>
   <g id="patch_6">
    <path d="M 57.6 41.472 
L 414.72 41.472 
" style="fill:none;stroke:#000000;stroke-linecap:square;stroke-linejoin:miter;stroke-width:0.8;"/>
   </g>
  </g>
 </g>
 <defs>
  <clipPath id="pda4db76437">
   <rect height="266.112" width="357.12" x="57.6" y="41.472"/>
  </clipPath>
 </defs>
</svg>
